<svg width="616" height="48" viewBox="0 0 616 48" fill="none" xmlns="http://www.w3.org/2000/svg">
<path d="M0 24C0 10.7452 10.7452 0 24 0C37.2548 0 48 10.7452 48 24C48 37.2548 37.2548 48 24 48C10.7452 48 0 37.2548 0 24Z" fill="white" fill-opacity="0.1"/>
<g clip-path="url(#clip0_252_255)">
<path d="M28.167 15.667H19.8337C17.5325 15.667 15.667 17.5325 15.667 19.8337V28.167C15.667 30.4682 17.5325 32.3337 19.8337 32.3337H28.167C30.4682 32.3337 32.3337 30.4682 32.3337 28.167V19.8337C32.3337 17.5325 30.4682 15.667 28.167 15.667Z" stroke="white" stroke-width="1.66667" stroke-linecap="round" stroke-linejoin="round"/>
<path d="M27.3337 23.4753C27.4366 24.1688 27.3181 24.8771 26.9952 25.4994C26.6723 26.1218 26.1614 26.6264 25.5351 26.9416C24.9088 27.2569 24.1991 27.3666 23.5069 27.2552C22.8147 27.1438 22.1752 26.817 21.6794 26.3212C21.1837 25.8255 20.8569 25.186 20.7455 24.4938C20.6341 23.8015 20.7438 23.0918 21.059 22.4656C21.3742 21.8393 21.8789 21.3284 22.5012 21.0055C23.1236 20.6825 23.8319 20.5641 24.5254 20.6669C25.2328 20.7718 25.8878 21.1015 26.3935 21.6072C26.8992 22.1129 27.2288 22.7678 27.3337 23.4753Z" stroke="white" stroke-width="1.66667" stroke-linecap="round" stroke-linejoin="round"/>
<path d="M28.583 19.417H28.5913" stroke="white" stroke-width="1.66667" stroke-linecap="round" stroke-linejoin="round"/>
</g>
<path d="M64 24C64 10.7452 74.7452 0 88 0C101.255 0 112 10.7452 112 24C112 37.2548 101.255 48 88 48C74.7452 48 64 37.2548 64 24Z" fill="white" fill-opacity="0.1"/>
<path d="M91.333 20.667C92.6591 20.667 93.9309 21.1938 94.8685 22.1315C95.8062 23.0691 96.333 24.3409 96.333 25.667V31.5003H92.9997V25.667C92.9997 25.225 92.8241 24.801 92.5115 24.4885C92.199 24.1759 91.775 24.0003 91.333 24.0003C90.891 24.0003 90.4671 24.1759 90.1545 24.4885C89.8419 24.801 89.6663 25.225 89.6663 25.667V31.5003H86.333V25.667C86.333 24.3409 86.8598 23.0691 87.7975 22.1315C88.7352 21.1938 90.0069 20.667 91.333 20.667Z" stroke="white" stroke-width="1.66667" stroke-linecap="round" stroke-linejoin="round"/>
<path d="M83.0003 21.5H79.667V31.5H83.0003V21.5Z" stroke="white" stroke-width="1.66667" stroke-linecap="round" stroke-linejoin="round"/>
<path d="M81.3337 19.0003C82.2541 19.0003 83.0003 18.2541 83.0003 17.3337C83.0003 16.4132 82.2541 15.667 81.3337 15.667C80.4132 15.667 79.667 16.4132 79.667 17.3337C79.667 18.2541 80.4132 19.0003 81.3337 19.0003Z" stroke="white" stroke-width="1.66667" stroke-linecap="round" stroke-linejoin="round"/>
<path d="M128 24C128 10.7452 138.745 0 152 0C165.255 0 176 10.7452 176 24C176 37.2548 165.255 48 152 48C138.745 48 128 37.2548 128 24Z" fill="white" fill-opacity="0.1"/>
<path d="M158.325 19.5753C157.494 19.3927 156.743 18.9515 156.179 18.3152C155.614 17.6789 155.266 16.8802 155.183 16.0337V15.667H152.308V27.0587C152.309 27.5641 152.151 28.057 151.855 28.4674C151.56 28.8778 151.144 29.1849 150.664 29.3453C150.185 29.5057 149.667 29.5112 149.185 29.3611C148.702 29.2109 148.279 28.9127 147.975 28.5087C147.703 28.151 147.536 27.7244 147.494 27.277C147.452 26.8296 147.535 26.3793 147.736 25.977C147.936 25.5747 148.245 25.2365 148.627 25.0005C149.01 24.7646 149.451 24.6404 149.9 24.642C150.149 24.6406 150.396 24.6771 150.633 24.7503V21.8337C150.357 21.7994 150.079 21.7855 149.8 21.792C148.775 21.8194 147.779 22.1453 146.936 22.7297C146.093 23.3142 145.438 24.1318 145.053 25.0825C144.667 26.0332 144.567 27.0758 144.765 28.0825C144.963 29.0891 145.45 30.0163 146.167 30.7503C146.901 31.4972 147.841 32.0088 148.867 32.2202C149.893 32.4315 150.959 32.3331 151.929 31.9375C152.899 31.5418 153.729 30.8667 154.315 29.998C154.9 29.1293 155.214 28.1062 155.217 27.0587V21.2253C156.376 22.0536 157.767 22.4967 159.192 22.492V19.6587C158.912 19.6598 158.633 19.6319 158.358 19.5753H158.325Z" fill="white"/>
<defs>
<clipPath id="clip0_252_255">
<rect width="20" height="20" fill="white" transform="translate(14 14)"/>
</clipPath>
</defs>
</svg>
