<svg width="20" height="20" viewBox="0 0 20 20" fill="none" xmlns="http://www.w3.org/2000/svg">
<path d="M16.3251 5.57533C15.4944 5.39265 14.7429 4.95152 14.1785 4.31524C13.6141 3.67895 13.2657 2.88022 13.1835 2.03366V1.66699H10.3085V13.0587C10.309 13.5641 10.1506 14.057 9.85549 14.4674C9.56041 14.8778 9.14368 15.1849 8.66434 15.3453C8.185 15.5057 7.66733 15.5112 7.18469 15.3611C6.70204 15.2109 6.27887 14.9127 5.97512 14.5087C5.70299 14.151 5.53636 13.7244 5.49406 13.277C5.45176 12.8296 5.53549 12.3793 5.73577 11.977C5.93605 11.5747 6.2449 11.2365 6.62738 11.0005C7.00987 10.7646 7.45073 10.6404 7.90012 10.642C8.14865 10.6406 8.39595 10.6771 8.63345 10.7503V7.83366C8.35707 7.79943 8.07854 7.7855 7.80012 7.79199C6.77455 7.8194 5.77922 8.14527 4.93602 8.72972C4.09283 9.31416 3.43836 10.1318 3.05277 11.0825C2.66717 12.0332 2.56719 13.0758 2.76505 14.0825C2.96292 15.0891 3.45005 16.0163 4.16679 16.7503C4.90136 17.4972 5.84136 18.0088 6.86737 18.2202C7.89337 18.4315 8.95905 18.3331 9.929 17.9375C10.899 17.5418 11.7294 16.8667 12.3148 15.998C12.9002 15.1293 13.2142 14.1062 13.2168 13.0587V7.22533C14.3763 8.05362 15.7668 8.4967 17.1918 8.49199V5.65866C16.9119 5.65981 16.6326 5.63189 16.3585 5.57533H16.3251Z" fill="white"/>
</svg>
