<svg width="163" height="71" viewBox="0 0 163 71" fill="none" xmlns="http://www.w3.org/2000/svg">
<g clip-path="url(#clip0_1308_645)">
<path d="M17.0363 42.2136C12.3613 42.2136 8.35275 40.576 5.01067 37.2985C1.67104 34.0234 0 30.0595 0 25.4068C0 20.754 1.67104 16.7803 5.01312 13.4758C8.35275 10.1737 12.3613 8.52148 17.0387 8.52148C21.7162 8.52148 25.7272 10.1737 29.084 13.4758C32.4383 16.7803 34.1167 20.7564 34.1167 25.4068V42.2136H17.0412H17.0363ZM25.3964 25.4068C25.3964 23.0559 24.5878 21.0334 22.9731 19.342C21.3585 17.6505 19.3738 16.8048 17.0167 16.8048C14.6596 16.8048 12.6749 17.6505 11.0602 19.342C9.44555 21.0334 8.63698 23.0559 8.63698 25.4068C8.63698 27.7576 9.45045 29.7335 11.0798 31.4127C12.7068 33.0919 14.6865 33.9303 17.0167 33.9303H25.3964V25.4092V25.4068Z" fill="#00B79F"/>
<path d="M71.4343 23.6904V0H70.8438C66.3991 0 62.7973 3.60356 62.7973 8.05041V10.6783C60.2932 9.24915 57.5122 8.52108 54.4372 8.52108C49.7622 8.52108 45.7536 10.1733 42.4116 13.4754C39.0695 16.7799 37.3984 20.756 37.3984 25.4063V42.2132H54.4347C59.1097 42.2132 63.1232 40.583 66.4799 37.3177C69.8343 34.0549 71.5127 30.0836 71.5127 25.4063C71.5127 24.8229 71.4857 24.2517 71.4343 23.6904ZM60.3544 31.4123C58.725 33.0915 56.7477 33.9299 54.4176 33.9299H46.0379V25.4088C46.0379 23.0579 46.844 21.0355 48.4611 19.344C50.0758 17.6526 52.0629 16.8068 54.4176 16.8068C56.7722 16.8068 58.7593 17.6526 60.374 19.344C61.9887 21.0355 62.7973 23.0579 62.7973 25.4088C62.7973 27.7597 61.9838 29.7355 60.3544 31.4147V31.4123Z" fill="#00B79F"/>
<path d="M145.925 44.2233C141.25 44.2233 137.242 42.5858 133.9 39.3083C130.558 36.0308 128.887 32.0668 128.887 27.4165C128.887 22.7662 130.558 18.79 133.9 15.4855C137.239 12.1835 141.248 10.5312 145.925 10.5312C150.603 10.5312 154.614 12.1835 157.971 15.4855C161.325 18.79 163.003 22.7662 163.003 27.4165V44.2233H145.928H145.925ZM154.286 27.4165C154.286 25.0656 153.477 23.0432 151.862 21.3517C150.248 19.6603 148.263 18.8145 145.906 18.8145C143.549 18.8145 141.564 19.6603 139.949 21.3517C138.335 23.0432 137.526 25.0656 137.526 27.4165C137.526 29.7674 138.34 31.7432 139.969 33.4225C141.596 35.1017 143.576 35.94 145.906 35.94H154.286V27.419V27.4165Z" fill="#00B79F"/>
<path d="M119.461 12.789C117.954 14.2966 117.202 16.0935 117.202 18.1796V27.4165C117.202 29.7429 116.389 31.7433 114.767 33.4225C114.757 33.4323 114.747 33.4445 114.737 33.4543C112.814 35.4253 109.58 35.4424 107.637 33.4936C107.614 33.4715 107.59 33.447 107.568 33.4249C105.929 31.7482 105.11 29.7454 105.11 27.419V18.1821C105.11 16.096 104.358 14.2966 102.851 12.7915C101.344 11.2863 99.2201 10.5313 96.4734 10.5313V27.4165C96.4734 29.7429 95.655 31.7433 94.0158 33.4225C93.9962 33.4421 93.9791 33.4592 93.9595 33.4789C92.0238 35.4302 88.7944 35.4351 86.8661 33.474C86.849 33.4568 86.8318 33.4396 86.8147 33.42C85.1902 31.7433 84.3792 29.7405 84.3792 27.4141V18.1772C84.3792 16.0911 83.627 14.2917 82.1201 12.7866C80.6132 11.2814 78.4889 10.5264 75.7422 10.5264V27.4116C75.7422 32.0619 77.4059 36.0259 80.7333 39.3034C80.77 39.3402 80.8068 39.3769 80.846 39.4137C86.136 44.5371 94.6676 44.5543 99.9649 39.4407C100.259 39.1563 100.546 38.8621 100.83 38.5533C101.038 38.7861 101.249 39.0117 101.464 39.2298C106.701 44.5445 115.409 44.6009 120.765 39.4064C120.792 39.3794 120.819 39.3524 120.846 39.3255C124.173 36.0626 125.837 32.0914 125.837 27.4141V10.5313C123.09 10.5313 120.963 11.2839 119.459 12.7915L119.461 12.789Z" fill="#00B79F"/>
<g clip-path="url(#clip1_1308_645)">
<path d="M35.6763 70.7683C34.1754 70.7683 32.8709 70.4622 31.7599 69.8471C30.649 69.2321 29.7905 68.3614 29.1874 67.2296C28.5842 66.0978 28.2812 64.7723 28.2812 63.2501C28.2812 62.0986 28.4524 61.0707 28.7918 60.1636C29.1313 59.2565 29.625 58.487 30.2675 57.8523C30.9099 57.2176 31.6898 56.7317 32.6044 56.3891C33.5189 56.0492 34.5429 55.8779 35.6735 55.8779C36.3159 55.8779 37.0116 55.965 37.7635 56.1419C38.5125 56.316 39.2195 56.6109 39.8815 57.0182C40.1929 57.2147 40.3977 57.4478 40.4959 57.7203C40.5941 57.9927 40.6137 58.2707 40.5548 58.5544C40.4959 58.838 40.3753 59.0824 40.1901 59.2846C40.005 59.4896 39.7749 59.616 39.5028 59.6637C39.2307 59.7115 38.9277 59.6497 38.5967 59.4727C38.1674 59.22 37.7298 59.029 37.2809 58.9026C36.8321 58.7762 36.4029 58.7116 35.9961 58.7116C35.3536 58.7116 34.7869 58.8156 34.3016 59.0178C33.8135 59.2228 33.4011 59.5149 33.0588 59.894C32.7166 60.2731 32.4585 60.7478 32.2845 61.3123C32.1106 61.8768 32.0208 62.5311 32.0208 63.2726C32.0208 64.7161 32.3659 65.8535 33.0588 66.682C33.749 67.5105 34.728 67.9261 35.9961 67.9261C36.4057 67.9261 36.8293 67.8672 37.2669 67.752C37.7046 67.6369 38.1478 67.4487 38.5967 67.1959C38.9277 67.0218 39.2251 66.9628 39.4888 67.0218C39.7525 67.0808 39.9713 67.2128 40.1452 67.4178C40.3192 67.6228 40.4286 67.8672 40.4679 68.148C40.5071 68.4317 40.4735 68.7097 40.3641 68.9821C40.2575 69.2545 40.0583 69.4792 39.7637 69.6561C39.1213 70.0465 38.4396 70.3302 37.7186 70.5043C36.9976 70.6784 36.3159 70.7683 35.6735 70.7683H35.6763Z" fill="white"/>
<path d="M44.7345 70.7086C44.1313 70.7086 43.6684 70.5485 43.3458 70.2256C43.0232 69.9026 42.8633 69.442 42.8633 68.8354V57.7786C42.8633 57.1748 43.0176 56.7142 43.3318 56.4024C43.6432 56.0907 44.0808 55.9334 44.6475 55.9334C45.2142 55.9334 45.6518 56.0907 45.9632 56.4024C46.2746 56.7142 46.4317 57.1719 46.4317 57.7786V59.6209H46.14C46.4121 58.4498 46.9479 57.5623 47.7475 56.9585C48.547 56.3547 49.6074 55.9924 50.9344 55.8773C51.344 55.8379 51.6694 55.9418 51.9135 56.1834C52.1575 56.4277 52.2978 56.804 52.3371 57.3096C52.3764 57.7982 52.2641 58.1914 52.0004 58.4947C51.7367 58.798 51.344 58.9778 50.8166 59.0367L50.1741 59.0957C48.9846 59.2137 48.0897 59.5788 47.4866 60.1938C46.8834 60.8089 46.5804 61.6711 46.5804 62.7832V68.8382C46.5804 69.442 46.4233 69.9054 46.1119 70.2284C45.8005 70.5514 45.3432 70.7114 44.7373 70.7114L44.7345 70.7086Z" fill="white"/>
<path d="M61.1284 70.7682C59.5125 70.7682 58.1182 70.4649 56.9484 69.861C55.7785 69.2572 54.878 68.3978 54.244 67.2857C53.61 66.1736 53.293 64.8564 53.293 63.337C53.293 61.8177 53.5988 60.5567 54.2131 59.4445C54.8275 58.3324 55.6747 57.459 56.7548 56.8271C57.8349 56.1924 59.0693 55.875 60.4523 55.875C61.4651 55.875 62.3768 56.0407 63.1848 56.3721C63.9927 56.7035 64.6857 57.1809 65.2608 57.8044C65.8359 58.4279 66.2735 59.1862 66.5765 60.0708C66.8795 60.9583 67.0282 61.9581 67.0282 63.0702C67.0282 63.4213 66.9075 63.6909 66.6635 63.8762C66.4194 64.0616 66.0743 64.1543 65.6255 64.1543H56.2442V62.048H64.4556L63.9871 62.4861C63.9871 61.5902 63.8553 60.8375 63.5916 60.2337C63.3278 59.6299 62.9491 59.1665 62.4526 58.8435C61.956 58.5206 61.336 58.3605 60.5954 58.3605C59.7762 58.3605 59.0805 58.5514 58.5054 58.9306C57.9303 59.3097 57.4926 59.8461 57.1897 60.5398C56.8867 61.2335 56.738 62.0564 56.738 63.0112V63.2163C56.738 64.8171 57.1139 66.0107 57.8629 66.7998C58.612 67.589 59.7201 67.985 61.1789 67.985C61.6839 67.985 62.2562 67.9232 62.8874 67.794C63.5214 67.6676 64.119 67.4486 64.6857 67.1368C65.0952 66.9037 65.4543 66.7998 65.7657 66.8307C66.0771 66.8588 66.3268 66.9712 66.512 67.1677C66.6971 67.3643 66.8093 67.6031 66.8486 67.8839C66.8879 68.1675 66.8346 68.454 66.6887 68.7461C66.5428 69.0382 66.2931 69.2937 65.9425 69.5072C65.2608 69.9369 64.4753 70.2542 63.5887 70.4592C62.7022 70.6643 61.8803 70.7654 61.12 70.7654L61.1284 70.7682Z" fill="white"/>
<path d="M74.6322 70.7682C73.5998 70.7682 72.6797 70.5688 71.8717 70.1672C71.0638 69.7684 70.4298 69.2263 69.9725 68.5439C69.5152 67.8614 69.2852 67.0919 69.2852 66.2325C69.2852 65.1794 69.5573 64.3453 70.1043 63.7302C70.6486 63.1152 71.5351 62.6714 72.7638 62.399C73.9926 62.1266 75.6366 61.989 77.7041 61.989H79.1657V64.0953H77.735C76.5259 64.0953 75.5608 64.1543 74.8426 64.2694C74.1216 64.3874 73.6111 64.5868 73.3081 64.8704C73.0051 65.1541 72.8564 65.5473 72.8564 66.0556C72.8564 66.6987 73.0808 67.2267 73.5297 67.6339C73.9786 68.044 74.6014 68.249 75.4009 68.249C76.0433 68.249 76.6128 68.0973 77.1094 67.7968C77.6059 67.4935 78.0015 67.0807 78.2933 66.5527C78.585 66.0247 78.7309 65.4209 78.7309 64.7384V61.3739C78.7309 60.3994 78.5177 59.6973 78.0885 59.2676C77.6592 58.8379 76.9383 58.6245 75.9255 58.6245C75.3616 58.6245 74.7529 58.6919 74.0992 58.8295C73.4455 58.9671 72.7582 59.2002 72.04 59.5316C71.6697 59.7057 71.3443 59.7563 71.061 59.6776C70.7776 59.599 70.5588 59.4389 70.4045 59.1946C70.2474 58.9502 70.1717 58.6834 70.1717 58.3886C70.1717 58.0937 70.2502 57.8072 70.4045 57.5264C70.5588 57.2427 70.8225 57.0349 71.1928 56.8973C72.0877 56.5266 72.9518 56.2626 73.7794 56.1081C74.607 55.9536 75.3616 55.875 76.0433 55.875C77.446 55.875 78.6019 56.0884 79.5052 56.5181C80.4113 56.9478 81.0874 57.5966 81.5363 58.4644C81.9852 59.3322 82.2096 60.45 82.2096 61.8149V68.836C82.2096 69.4398 82.0637 69.9032 81.7719 70.2261C81.4802 70.5491 81.0594 70.7092 80.5151 70.7092C79.9709 70.7092 79.5445 70.5491 79.2443 70.2261C78.9413 69.9032 78.7926 69.4426 78.7926 68.836V67.4317H79.0255C78.888 68.1142 78.6215 68.704 78.2203 69.2011C77.822 69.6981 77.3198 70.0829 76.7138 70.3553C76.1107 70.6277 75.4177 70.7654 74.6378 70.7654L74.6322 70.7682Z" fill="white"/>
<path d="M92.4615 70.7679C91.1935 70.7679 90.1387 70.5517 89.2914 70.1248C88.4442 69.6951 87.8158 69.066 87.4062 68.2375C86.9966 67.409 86.7918 66.3783 86.7918 65.1511V58.9191H85.2713C84.8028 58.9191 84.4437 58.7984 84.1912 58.554C83.9387 58.3097 83.8125 57.9727 83.8125 57.5458C83.8125 57.1189 83.9387 56.7566 84.1912 56.5207C84.4437 56.2876 84.8056 56.1697 85.2713 56.1697H86.7918V53.5073C86.7918 52.9034 86.9517 52.4429 87.2743 52.1311C87.597 51.8194 88.0486 51.6621 88.6322 51.6621C89.2157 51.6621 89.6645 51.8194 89.9759 52.1311C90.2873 52.4429 90.4444 52.9006 90.4444 53.5073V56.1697H93.5416C94.0101 56.1697 94.3692 56.2876 94.6217 56.5207C94.8742 56.7538 95.0004 57.0964 95.0004 57.5458C95.0004 57.9951 94.8742 58.3125 94.6217 58.554C94.3692 58.7984 94.0073 58.9191 93.5416 58.9191H90.4444V64.946C90.4444 65.8812 90.6492 66.5834 91.0588 67.0524C91.4684 67.5214 92.1305 67.7545 93.045 67.7545C93.3761 67.7545 93.6678 67.7264 93.9203 67.6674C94.1728 67.6084 94.3972 67.5691 94.5936 67.5495C94.8265 67.5298 95.0228 67.6028 95.1771 67.7685C95.3314 67.9342 95.41 68.2712 95.41 68.7767C95.41 69.1671 95.3455 69.5126 95.2192 69.8159C95.093 70.1192 94.8629 70.327 94.5319 70.445C94.2794 70.5236 93.9484 70.5966 93.5388 70.664C93.1292 70.7314 92.7701 70.7679 92.4587 70.7679H92.4615Z" fill="white"/>
<path d="M102.25 71.0006C101.647 71.0006 101.184 70.8293 100.861 70.4894C100.539 70.1496 100.379 69.675 100.379 69.0712V51.8386C100.379 51.2151 100.539 50.7377 100.861 50.4063C101.184 50.0749 101.644 49.9092 102.25 49.9092C102.856 49.9092 103.316 50.0749 103.639 50.4063C103.961 50.7377 104.121 51.2151 104.121 51.8386V69.0712C104.121 69.675 103.964 70.1496 103.653 70.4894C103.341 70.8293 102.873 71.0006 102.25 71.0006Z" fill="#00B79F"/>
<path d="M110.024 70.9136C109.362 70.9136 108.832 70.7086 108.43 70.2986C108.032 69.8885 107.83 69.3634 107.83 68.7202C107.83 68.0771 108.029 67.5828 108.43 67.184C108.829 66.7852 109.362 66.583 110.024 66.583C110.686 66.583 111.236 66.7824 111.617 67.184C111.996 67.5828 112.187 68.0968 112.187 68.7202C112.187 69.3437 111.996 69.8914 111.617 70.2986C111.239 70.7086 110.706 70.9136 110.024 70.9136Z" fill="#00B79F"/>
<path d="M116.656 71.0006C116.188 71.0006 115.815 70.8939 115.531 70.6776C115.248 70.4642 115.077 70.1749 115.021 69.8154C114.962 69.4559 115.029 69.0515 115.225 68.6022L122.94 51.4875C123.193 50.923 123.501 50.5186 123.86 50.2743C124.219 50.0299 124.635 49.9092 125.103 49.9092C125.572 49.9092 125.956 50.0299 126.315 50.2743C126.674 50.5186 126.983 50.923 127.235 51.4875L134.981 68.6022C135.194 69.0515 135.273 69.4615 135.214 69.8323C135.155 70.203 134.989 70.4894 134.717 70.6945C134.445 70.8995 134.083 71.0006 133.637 71.0006C133.09 71.0006 132.666 70.8686 132.366 70.6046C132.063 70.3406 131.797 69.9362 131.564 69.3913L129.665 64.9737L131.241 65.9987H118.909L120.488 64.9737L118.617 69.3913C118.365 69.9586 118.101 70.3659 117.829 70.6214C117.557 70.8742 117.167 71.0006 116.659 71.0006H116.656ZM125.044 54.2061L120.954 63.9486L120.194 63.0134H129.954L129.224 63.9486L125.103 54.2061H125.044Z" fill="#00B79F"/>
<path d="M110.51 64.9229C110.067 64.8527 109.697 64.6758 109.405 64.3921C109.113 64.1085 108.897 63.7097 108.759 63.1957L106.078 52.6753C105.979 52.2597 105.979 51.8833 106.078 51.552C106.176 51.2206 106.378 50.9762 106.686 50.8133C106.995 50.6532 107.388 50.6111 107.867 50.687C108.277 50.7515 108.591 50.8976 108.81 51.1223C109.029 51.3497 109.197 51.7345 109.309 52.2821L111.486 61.8477L110.687 61.7213L115.821 53.2876C116.096 52.8214 116.376 52.5124 116.662 52.3664C116.948 52.2204 117.316 52.1838 117.759 52.2541C118.149 52.3158 118.444 52.4675 118.643 52.709C118.842 52.9506 118.943 53.2398 118.943 53.5768C118.943 53.9138 118.825 54.2649 118.587 54.6272L112.704 63.8164C112.432 64.2658 112.115 64.5803 111.747 64.76C111.38 64.9398 110.967 64.9931 110.507 64.9201L110.51 64.9229Z" fill="white"/>
</g>
</g>
<defs>
<clipPath id="clip0_1308_645">
<rect width="163" height="71" fill="white"/>
</clipPath>
<clipPath id="clip1_1308_645">
<rect width="106.953" height="21.0942" fill="white" transform="translate(28.2812 49.9062)"/>
</clipPath>
</defs>
</svg>
