<svg width="163" height="71" viewBox="0 0 163 71" fill="none" xmlns="http://www.w3.org/2000/svg">
<g clip-path="url(#clip0_403_58)">
<path d="M17.0363 42.2131C12.3613 42.2131 8.35275 40.5756 5.01067 37.2981C1.67104 34.023 0 30.0591 0 25.4063C0 20.7536 1.67104 16.7798 5.01312 13.4753C8.35275 10.1733 12.3613 8.52106 17.0387 8.52106C21.7162 8.52106 25.7272 10.1733 29.084 13.4753C32.4383 16.7798 34.1167 20.756 34.1167 25.4063V42.2131H17.0412H17.0363ZM25.3964 25.4063C25.3964 23.0554 24.5878 21.033 22.9731 19.3416C21.3585 17.6501 19.3738 16.8044 17.0167 16.8044C14.6596 16.8044 12.6749 17.6501 11.0602 19.3416C9.44555 21.033 8.63698 23.0554 8.63698 25.4063C8.63698 27.7572 9.45045 29.7331 11.0798 31.4123C12.7068 33.0915 14.6865 33.9299 17.0167 33.9299H25.3964V25.4088V25.4063Z" fill="#9700FF"/>
<path d="M71.4333 23.6904V0H70.8428C66.3981 0 62.7963 3.60356 62.7963 8.05041V10.6783C60.2922 9.24915 57.5112 8.52108 54.4362 8.52108C49.7612 8.52108 45.7527 10.1733 42.4106 13.4754C39.0685 16.7799 37.3975 20.756 37.3975 25.4063V42.2132H54.4337C59.1087 42.2132 63.1222 40.583 66.479 37.3177C69.8333 34.0549 71.5117 30.0836 71.5117 25.4063C71.5117 24.8229 71.4847 24.2517 71.4333 23.6904ZM60.3534 31.4123C58.7241 33.0915 56.7467 33.9299 54.4166 33.9299H46.0369V25.4088C46.0369 23.0579 46.843 21.0355 48.4601 19.344C50.0748 17.6526 52.0619 16.8068 54.4166 16.8068C56.7712 16.8068 58.7584 17.6526 60.373 19.344C61.9877 21.0355 62.7963 23.0579 62.7963 25.4088C62.7963 27.7597 61.9828 29.7355 60.3534 31.4147V31.4123Z" fill="#9700FF"/>
<path d="M145.924 44.2233C141.249 44.2233 137.241 42.5857 133.899 39.3082C130.557 36.0307 128.886 32.0668 128.886 27.4165C128.886 22.7661 130.557 18.79 133.899 15.4855C137.238 12.1834 141.247 10.5312 145.924 10.5312C150.602 10.5312 154.613 12.1834 157.97 15.4855C161.324 18.79 163.002 22.7661 163.002 27.4165V44.2233H145.927H145.924ZM154.285 27.4165C154.285 25.0656 153.476 23.0432 151.861 21.3517C150.247 19.6602 148.262 18.8145 145.905 18.8145C143.548 18.8145 141.563 19.6602 139.948 21.3517C138.334 23.0432 137.525 25.0656 137.525 27.4165C137.525 29.7674 138.339 31.7432 139.968 33.4224C141.595 35.1016 143.575 35.94 145.905 35.94H154.285V27.4189V27.4165Z" fill="#9700FF"/>
<path d="M119.46 12.789C117.953 14.2966 117.201 16.0934 117.201 18.1796V27.4165C117.201 29.7429 116.388 31.7432 114.766 33.4224C114.756 33.4322 114.746 33.4445 114.736 33.4543C112.813 35.4252 109.579 35.4424 107.636 33.4935C107.614 33.4714 107.589 33.4469 107.567 33.4249C105.928 31.7481 105.109 29.7453 105.109 27.4189V18.182C105.109 16.0959 104.357 14.2966 102.85 12.7914C101.343 11.2862 99.2191 10.5312 96.4724 10.5312V27.4165C96.4724 29.7429 95.654 31.7432 94.0149 33.4224C93.9953 33.442 93.9781 33.4592 93.9585 33.4788C92.0228 35.4301 88.7935 35.435 86.8651 33.4739C86.848 33.4567 86.8308 33.4396 86.8137 33.42C85.1892 31.7432 84.3782 29.7404 84.3782 27.414V18.1771C84.3782 16.091 83.626 14.2917 82.1191 12.7865C80.6122 11.2813 78.4879 10.5263 75.7412 10.5263V27.4116C75.7412 32.0619 77.4049 36.0258 80.7323 39.3033C80.769 39.3401 80.8058 39.3769 80.845 39.4136C86.135 44.5371 94.6666 44.5542 99.964 39.4406C100.258 39.1562 100.545 38.8621 100.829 38.5532C101.037 38.7861 101.248 39.0116 101.463 39.2298C106.7 44.5444 115.408 44.6008 120.764 39.4063C120.791 39.3793 120.818 39.3524 120.845 39.3254C124.172 36.0626 125.836 32.0913 125.836 27.414V10.5312C123.089 10.5312 120.962 11.2838 119.458 12.7914L119.46 12.789Z" fill="#9700FF"/>
<g clip-path="url(#clip1_403_58)">
<path d="M35.6753 70.7669C34.1744 70.7669 32.8699 70.4608 31.759 69.8458C30.648 69.2307 29.7896 68.3601 29.1864 67.2283C28.5833 66.0965 28.2803 64.7709 28.2803 63.2487C28.2803 62.0973 28.4514 61.0694 28.7909 60.1623C29.1303 59.2551 29.6241 58.4856 30.2665 57.8509C30.9089 57.2162 31.6888 56.7304 32.6034 56.3877C33.5179 56.0479 34.5419 55.8766 35.6725 55.8766C36.3149 55.8766 37.0106 55.9636 37.7625 56.1406C38.5115 56.3147 39.2185 56.6096 39.8806 57.0168C40.192 57.2134 40.3968 57.4465 40.4949 57.7189C40.5931 57.9913 40.6128 58.2694 40.5539 58.553C40.4949 58.8367 40.3743 59.081 40.1892 59.2832C40.004 59.4882 39.774 59.6146 39.5018 59.6624C39.2297 59.7101 38.9267 59.6483 38.5957 59.4714C38.1665 59.2186 37.7288 59.0277 37.28 58.9013C36.8311 58.7749 36.4019 58.7103 35.9951 58.7103C35.3527 58.7103 34.786 58.8142 34.3006 59.0164C33.8125 59.2214 33.4001 59.5135 33.0579 59.8927C32.7156 60.2718 32.4575 60.7464 32.2836 61.3109C32.1096 61.8754 32.0199 62.5298 32.0199 63.2712C32.0199 64.7148 32.3649 65.8522 33.0579 66.6807C33.748 67.5091 34.7271 67.9248 35.9951 67.9248C36.4047 67.9248 36.8283 67.8658 37.2659 67.7507C37.7036 67.6355 38.1468 67.4474 38.5957 67.1946C38.9267 67.0205 39.2241 66.9615 39.4878 67.0205C39.7515 67.0795 39.9703 67.2115 40.1443 67.4165C40.3182 67.6215 40.4276 67.8658 40.4669 68.1467C40.5062 68.4303 40.4725 68.7084 40.3631 68.9808C40.2565 69.2532 40.0573 69.4779 39.7627 69.6548C39.1203 70.0452 38.4386 70.3288 37.7176 70.5029C36.9966 70.6771 36.3149 70.7669 35.6725 70.7669H35.6753Z" fill="white"/>
<path d="M44.7335 70.708C44.1303 70.708 43.6675 70.5479 43.3448 70.2249C43.0222 69.9019 42.8623 69.4413 42.8623 68.8347V57.7779C42.8623 57.1741 43.0166 56.7135 43.3308 56.4018C43.6422 56.09 44.0798 55.9327 44.6465 55.9327C45.2132 55.9327 45.6509 56.09 45.9623 56.4018C46.2737 56.7135 46.4308 57.1713 46.4308 57.7779V59.6202H46.139C46.4111 58.4491 46.947 57.5616 47.7465 56.9578C48.546 56.354 49.6065 55.9917 50.9334 55.8766C51.343 55.8373 51.6684 55.9412 51.9125 56.1827C52.1566 56.427 52.2968 56.8034 52.3361 57.3089C52.3754 57.7976 52.2632 58.1907 51.9995 58.494C51.7358 58.7974 51.343 58.9771 50.8156 59.0361L50.1732 59.0951C48.9837 59.213 48.0887 59.5781 47.4856 60.1932C46.8824 60.8082 46.5794 61.6704 46.5794 62.7825V68.8375C46.5794 69.4414 46.4223 69.9047 46.1109 70.2277C45.7995 70.5507 45.3423 70.7108 44.7363 70.7108L44.7335 70.708Z" fill="white"/>
<path d="M61.1284 70.7669C59.5125 70.7669 58.1182 70.4636 56.9484 69.8598C55.7785 69.256 54.878 68.3966 54.244 67.2845C53.61 66.1723 53.293 64.8552 53.293 63.3358C53.293 61.8164 53.5988 60.5555 54.2131 59.4433C54.8275 58.3312 55.6747 57.4577 56.7548 56.8258C57.8349 56.1911 59.0693 55.8738 60.4523 55.8738C61.4651 55.8738 62.3768 56.0395 63.1848 56.3709C63.9927 56.7023 64.6857 57.1797 65.2608 57.8032C65.8359 58.4267 66.2735 59.1849 66.5765 60.0696C66.8795 60.9571 67.0282 61.9569 67.0282 63.069C67.0282 63.4201 66.9075 63.6897 66.6635 63.875C66.4194 64.0604 66.0743 64.1531 65.6255 64.1531H56.2442V62.0467H64.4556L63.9871 62.4849C63.9871 61.589 63.8553 60.8363 63.5916 60.2325C63.3278 59.6287 62.9491 59.1653 62.4526 58.8423C61.956 58.5193 61.336 58.3592 60.5954 58.3592C59.7762 58.3592 59.0805 58.5502 58.5054 58.9294C57.9303 59.3085 57.4926 59.8449 57.1897 60.5386C56.8867 61.2323 56.738 62.0552 56.738 63.01V63.215C56.738 64.8159 57.1139 66.0094 57.8629 66.7986C58.612 67.5878 59.7201 67.9838 61.1789 67.9838C61.6839 67.9838 62.2562 67.922 62.8874 67.7928C63.5214 67.6664 64.119 67.4474 64.6857 67.1356C65.0952 66.9025 65.4543 66.7986 65.7657 66.8295C66.0771 66.8576 66.3268 66.9699 66.512 67.1665C66.6971 67.3631 66.8093 67.6018 66.8486 67.8827C66.8879 68.1663 66.8346 68.4528 66.6887 68.7449C66.5428 69.0369 66.2931 69.2925 65.9425 69.506C65.2608 69.9356 64.4753 70.253 63.5887 70.458C62.7022 70.663 61.8803 70.7641 61.12 70.7641L61.1284 70.7669Z" fill="white"/>
<path d="M74.6313 70.7669C73.5989 70.7669 72.6787 70.5675 71.8707 70.1659C71.0628 69.7671 70.4288 69.2251 69.9715 68.5427C69.5142 67.8602 69.2842 67.0907 69.2842 66.2313C69.2842 65.1781 69.5563 64.344 70.1034 63.729C70.6476 63.1139 71.5341 62.6702 72.7629 62.3978C73.9916 62.1254 75.6356 61.9878 77.7032 61.9878H79.1648V64.0941H77.734C76.5249 64.0941 75.5598 64.1531 74.8417 64.2682C74.1207 64.3862 73.6101 64.5856 73.3071 64.8692C73.0041 65.1529 72.8554 65.5461 72.8554 66.0544C72.8554 66.6975 73.0799 67.2255 73.5287 67.6327C73.9776 68.0428 74.6004 68.2478 75.3999 68.2478C76.0424 68.2478 76.6119 68.0961 77.1084 67.7956C77.605 67.4923 78.0005 67.0795 78.2923 66.5515C78.584 66.0235 78.7299 65.4197 78.7299 64.7372V61.3727C78.7299 60.3982 78.5167 59.6961 78.0875 59.2664C77.6583 58.8367 76.9373 58.6232 75.9245 58.6232C75.3607 58.6232 74.7519 58.6906 74.0982 58.8283C73.4446 58.9659 72.7572 59.199 72.0391 59.5304C71.6688 59.7045 71.3433 59.755 71.06 59.6764C70.7766 59.5978 70.5578 59.4377 70.4035 59.1934C70.2464 58.949 70.1707 58.6822 70.1707 58.3873C70.1707 58.0924 70.2492 57.806 70.4035 57.5251C70.5578 57.2415 70.8215 57.0337 71.1918 56.8961C72.0868 56.5253 72.9508 56.2613 73.7784 56.1069C74.606 55.9524 75.3607 55.8738 76.0424 55.8738C77.4451 55.8738 78.6009 56.0872 79.5042 56.5169C80.4104 56.9466 81.0865 57.5954 81.5353 58.4632C81.9842 59.331 82.2086 60.4487 82.2086 61.8136V68.8347C82.2086 69.4386 82.0627 69.9019 81.771 70.2249C81.4792 70.5479 81.0584 70.708 80.5142 70.708C79.9699 70.708 79.5435 70.5479 79.2433 70.2249C78.9403 69.9019 78.7916 69.4414 78.7916 68.8347V67.4305H79.0245C78.887 68.113 78.6205 68.7027 78.2193 69.1998C77.821 69.6969 77.3188 70.0817 76.7128 70.3541C76.1097 70.6265 75.4168 70.7641 74.6369 70.7641L74.6313 70.7669Z" fill="white"/>
<path d="M92.4596 70.767C91.1915 70.767 90.1367 70.5507 89.2895 70.1238C88.4422 69.6941 87.8138 69.065 87.4043 68.2365C86.9947 67.4081 86.7899 66.3774 86.7899 65.1501V58.9181H85.2693C84.8008 58.9181 84.4418 58.7974 84.1893 58.553C83.9368 58.3087 83.8105 57.9717 83.8105 57.5448C83.8105 57.1179 83.9368 56.7556 84.1893 56.5197C84.4418 56.2866 84.8037 56.1687 85.2693 56.1687H86.7899V53.5063C86.7899 52.9025 86.9498 52.4419 87.2724 52.1301C87.595 51.8184 88.0467 51.6611 88.6302 51.6611C89.2137 51.6611 89.6626 51.8184 89.974 52.1301C90.2854 52.4419 90.4425 52.8997 90.4425 53.5063V56.1687H93.5396C94.0081 56.1687 94.3672 56.2866 94.6197 56.5197C94.8722 56.7528 94.9984 57.0955 94.9984 57.5448C94.9984 57.9942 94.8722 58.3115 94.6197 58.553C94.3672 58.7974 94.0053 58.9181 93.5396 58.9181H90.4425V64.9451C90.4425 65.8803 90.6473 66.5824 91.0569 67.0514C91.4665 67.5204 92.1285 67.7535 93.0431 67.7535C93.3741 67.7535 93.6659 67.7254 93.9184 67.6664C94.1709 67.6075 94.3953 67.5681 94.5917 67.5485C94.8245 67.5288 95.0209 67.6018 95.1752 67.7675C95.3295 67.9332 95.408 68.2703 95.408 68.7758C95.408 69.1661 95.3435 69.5116 95.2173 69.8149C95.091 70.1182 94.861 70.326 94.5299 70.444C94.2775 70.5226 93.9464 70.5956 93.5368 70.663C93.1272 70.7304 92.7682 70.767 92.4568 70.767H92.4596Z" fill="white"/>
<path d="M102.25 71C101.647 71 101.184 70.8287 100.861 70.4889C100.539 70.1491 100.379 69.6744 100.379 69.0706V51.838C100.379 51.2146 100.539 50.7371 100.861 50.4057C101.184 50.0743 101.644 49.9086 102.25 49.9086C102.856 49.9086 103.316 50.0743 103.639 50.4057C103.961 50.7371 104.121 51.2146 104.121 51.838V69.0706C104.121 69.6744 103.964 70.1491 103.653 70.4889C103.341 70.8287 102.873 71 102.25 71Z" fill="#9700FF"/>
<path d="M110.024 70.913C109.362 70.913 108.832 70.7079 108.43 70.2979C108.032 69.8879 107.83 69.3627 107.83 68.7196C107.83 68.0764 108.029 67.5821 108.43 67.1833C108.829 66.7845 109.362 66.5823 110.024 66.5823C110.686 66.5823 111.236 66.7817 111.617 67.1833C111.996 67.5821 112.187 68.0961 112.187 68.7196C112.187 69.343 111.996 69.8907 111.617 70.2979C111.239 70.7079 110.706 70.913 110.024 70.913Z" fill="#9700FF"/>
<path d="M116.656 71C116.188 71 115.815 70.8933 115.531 70.6771C115.248 70.4636 115.077 70.1743 115.021 69.8149C114.962 69.4554 115.029 69.051 115.225 68.6016L122.94 51.487C123.193 50.9225 123.501 50.5181 123.86 50.2737C124.219 50.0294 124.635 49.9086 125.103 49.9086C125.572 49.9086 125.956 50.0294 126.315 50.2737C126.674 50.5181 126.983 50.9225 127.235 51.487L134.981 68.6016C135.194 69.051 135.273 69.461 135.214 69.8317C135.155 70.2024 134.989 70.4889 134.717 70.6939C134.445 70.8989 134.083 71 133.637 71C133.09 71 132.666 70.868 132.366 70.604C132.063 70.34 131.797 69.9356 131.564 69.3908L129.665 64.9731L131.241 65.9982H118.909L120.488 64.9731L118.617 69.3908C118.365 69.9581 118.101 70.3653 117.829 70.6209C117.557 70.8736 117.167 71 116.659 71H116.656ZM125.044 54.2055L120.954 63.948L120.194 63.0128H129.954L129.224 63.948L125.103 54.2055H125.044Z" fill="#9700FF"/>
<path d="M110.509 64.9226C110.066 64.8524 109.696 64.6754 109.404 64.3918C109.112 64.1081 108.896 63.7093 108.759 63.1954L106.077 52.675C105.978 52.2593 105.978 51.883 106.077 51.5516C106.175 51.2202 106.377 50.9759 106.685 50.813C106.994 50.6529 107.387 50.6108 107.866 50.6866C108.276 50.7512 108.59 50.8972 108.809 51.1219C109.028 51.3494 109.196 51.7341 109.308 52.2818L111.485 61.8473L110.686 61.7209L115.82 53.2872C116.095 52.821 116.375 52.5121 116.661 52.366C116.947 52.22 117.315 52.1835 117.758 52.2537C118.148 52.3155 118.443 52.4671 118.642 52.7087C118.841 52.9502 118.942 53.2395 118.942 53.5765C118.942 53.9135 118.824 54.2645 118.586 54.6268L112.703 63.816C112.431 64.2654 112.114 64.5799 111.746 64.7597C111.379 64.9394 110.966 64.9928 110.506 64.9198L110.509 64.9226Z" fill="white"/>
</g>
</g>
<defs>
<clipPath id="clip0_403_58">
<rect width="163" height="71" fill="white"/>
</clipPath>
<clipPath id="clip1_403_58">
<rect width="106.953" height="21.0942" fill="white" transform="translate(28.2803 49.9058)"/>
</clipPath>
</defs>
</svg>
