<svg width="59" height="16" viewBox="0 0 59 16" fill="none" xmlns="http://www.w3.org/2000/svg">
<path d="M6.09471 15.0982C4.42224 15.0982 2.98819 14.5125 1.79256 13.3403C0.597813 12.1689 0 10.7511 0 9.08698C0 7.42284 0.597813 6.00157 1.79344 4.81966C2.98819 3.63862 4.42224 3.04767 6.09559 3.04767C7.76894 3.04767 9.20387 3.63862 10.4048 4.81966C11.6048 6.00157 12.2052 7.42372 12.2052 9.08698V15.0982H6.09647H6.09471ZM9.08553 9.08698C9.08553 8.24614 8.79627 7.52279 8.21861 6.91781C7.64096 6.31283 6.93095 6.01033 6.0877 6.01033C5.24445 6.01033 4.53444 6.31283 3.95679 6.91781C3.37913 7.52279 3.08987 8.24614 3.08987 9.08698C3.08987 9.92782 3.38089 10.6345 3.9638 11.2351C4.54583 11.8357 5.25409 12.1356 6.0877 12.1356H9.08553V9.08786V9.08698Z" fill="white"/>
<path d="M25.5552 8.47328V0H25.3439C23.7539 0 22.4653 1.28888 22.4653 2.87937V3.81929C21.5695 3.30812 20.5746 3.04771 19.4745 3.04771C17.802 3.04771 16.368 3.63867 15.1723 4.8197C13.9767 6.00161 13.3789 7.42376 13.3789 9.08703V15.0983H19.4736C21.1461 15.0983 22.5819 14.5152 23.7828 13.3473C24.9828 12.1803 25.5832 10.7599 25.5832 9.08703C25.5832 8.87835 25.5736 8.67406 25.5552 8.47328ZM21.5914 11.2352C21.0085 11.8358 20.3011 12.1356 19.4675 12.1356H16.4697V9.0879C16.4697 8.24706 16.758 7.52371 17.3366 6.91873C17.9142 6.31375 18.6251 6.01126 19.4675 6.01126C20.3099 6.01126 21.0207 6.31375 21.5984 6.91873C22.176 7.52371 22.4653 8.24706 22.4653 9.0879C22.4653 9.92874 22.1743 10.6354 21.5914 11.236V11.2352Z" fill="white"/>
<path d="M52.203 15.8171C50.5305 15.8171 49.0965 15.2314 47.9009 14.0592C46.7052 12.8869 46.1074 11.4691 46.1074 9.80585C46.1074 8.14259 46.7052 6.72044 47.9009 5.53853C49.0956 4.3575 50.5297 3.76654 52.203 3.76654C53.8764 3.76654 55.3113 4.3575 56.5122 5.53853C57.7122 6.72044 58.3126 8.14259 58.3126 9.80585V15.8171H52.2039H52.203ZM55.1938 9.80585C55.1938 8.96501 54.9046 8.24166 54.3269 7.63668C53.7493 7.0317 53.0392 6.72921 52.196 6.72921C51.3527 6.72921 50.6427 7.0317 50.0651 7.63668C49.4874 8.24166 49.1982 8.96501 49.1982 9.80585C49.1982 10.6467 49.4892 11.3534 50.0721 11.954C50.6541 12.5546 51.3624 12.8544 52.196 12.8544H55.1938V9.80673V9.80585Z" fill="white"/>
<path d="M42.7361 4.57423C42.1971 5.11345 41.928 5.75614 41.928 6.50228V9.80602C41.928 10.6381 41.6369 11.3535 41.0567 11.9541C41.0531 11.9577 41.0496 11.962 41.0461 11.9655C40.358 12.6705 39.201 12.6766 38.5059 11.9796C38.498 11.9717 38.4892 11.9629 38.4813 11.955C37.8949 11.3553 37.6021 10.639 37.6021 9.8069V6.50316C37.6021 5.75701 37.333 5.11345 36.794 4.57511C36.2549 4.03676 35.4949 3.76671 34.5123 3.76671V9.80602C34.5123 10.6381 34.2195 11.3535 33.6331 11.9541C33.6261 11.9612 33.6199 11.9673 33.6129 11.9743C32.9204 12.6722 31.7651 12.674 31.0753 11.9726C31.0691 11.9664 31.063 11.9603 31.0569 11.9533C30.4757 11.3535 30.1856 10.6372 30.1856 9.80514V6.50141C30.1856 5.75526 29.9165 5.1117 29.3774 4.57335C28.8383 4.035 28.0783 3.76495 27.0957 3.76495V9.80427C27.0957 11.4675 27.6909 12.8853 28.8813 14.0576C28.8944 14.0707 28.9076 14.0839 28.9216 14.097C30.8141 15.9295 33.8662 15.9356 35.7614 14.1067C35.8666 14.005 35.9691 13.8997 36.0708 13.7893C36.1453 13.8726 36.2207 13.9532 36.2978 14.0313C38.171 15.9321 41.2863 15.9523 43.2025 14.0944C43.2121 14.0847 43.2218 14.0751 43.2314 14.0655C44.4218 12.8984 45.0169 11.4781 45.0169 9.80514V3.76671C44.0343 3.76671 43.2735 4.03588 42.7353 4.57511L42.7361 4.57423Z" fill="white"/>
</svg>
